<?xml version="1.0" encoding="UTF-8" standalone="no"?>
<!DOCTYPE svg PUBLIC "-//W3C//DTD SVG 1.1//EN" "http://www.w3.org/Graphics/SVG/1.1/DTD/svg11.dtd">
<svg width="100%" height="100%" viewBox="0 0 1281 1066" version="1.1" xmlns="http://www.w3.org/2000/svg" xmlns:xlink="http://www.w3.org/1999/xlink" xml:space="preserve" xmlns:serif="http://www.serif.com/" style="fill-rule:evenodd;clip-rule:evenodd;stroke-linejoin:round;stroke-miterlimit:2;">
    <g transform="matrix(2.3039,0,0,2.3039,-184.27,-24.15)">
        <path d="M356.09,89.476L550.56,415.696L165.28,416.946L356.09,89.476Z" style="fill:white;fill-rule:nonzero;"/>
        <path d="M357.25,10.538C347.744,9.924 338.026,14.413 331.938,22.476L81.318,443.536C79.624,449.9 79.56,453.952 81.068,459.942C82.51,465.67 88.148,471.579 93.537,473.004L615.477,473.16C618.741,472.568 623.24,471.033 625.446,469.754C633.487,465.093 638.923,452.683 633.227,443.254L379.507,23.254C375.801,17.119 368.329,12.698 361.319,11.129C359.981,10.83 358.615,10.623 357.257,10.535L357.25,10.538ZM356.094,89.476L550.564,415.696L165.284,416.946L356.094,89.476Z" style="fill:rgb(234,0,0);fill-rule:nonzero;"/>
        <path d="M349.16,394.46C340.361,390.244 333.66,380.107 333.66,371.012C333.66,354.077 351.349,341.321 368.085,346.186C379.376,349.468 387.049,359.661 386.955,371.251C386.875,381.096 382.616,388.348 373.921,393.444C367.266,397.344 356.131,397.801 349.16,394.461L349.16,394.46ZM351.16,327.59C350.06,326.985 347.47,324.88 345.404,322.911C338.185,316.033 338.194,316.093 333.489,242.496C329.306,177.074 329.271,176.057 331.066,171.358C335.104,160.785 344.101,156.155 359.081,156.941C368.603,157.441 375.937,160.786 380.704,166.805C384.775,171.946 385.661,174.852 385.657,183.065C385.653,191.99 379.954,301.435 379.144,308.145C378.083,316.929 372.957,324.058 365.442,327.197C361.148,328.991 354.063,329.186 351.16,327.59L351.16,327.59Z" style="fill-rule:nonzero;"/>
    </g>
</svg>
